<?xml version="1.0" encoding="UTF-8"?>
<svg width="16px" height="40px" viewBox="0 0 16 40" version="1.1" xmlns="http://www.w3.org/2000/svg" xmlns:xlink="http://www.w3.org/1999/xlink">
    <!-- Generator: sketchtool 51 (57462) - http://www.bohemiancoding.com/sketch -->
    <title>EF60C792-60AD-491D-B953-0E2B1D21B8E9</title>
    <desc>Created with sketchtool.</desc>
    <defs></defs>
    <g id="Symbols" stroke="none" stroke-width="1" fill="none" fill-rule="evenodd">
        <g id="UI/icons/arrow" fill="#000000" fill-rule="nonzero">
            <g id="noun_701466" transform="translate(8.000000, 20.000000) rotate(-90.000000) translate(-8.000000, -20.000000) translate(-12.000000, 12.000000)">
                <g id="Group" transform="translate(20.000000, 7.793876) rotate(-180.000000) translate(-20.000000, -7.793876) translate(-0.000000, 0.460542)">
                    <path d="M26.8503938,0.33070864 C26.4881889,0.8346456 26.8346458,1.33858258 27.1181102,1.66929124 L35.4173227,6.50393644 C34.9921258,6.36220444 34.5511809,6.23622 34.2362204,6.23622 L-1.42108547e-14,6.23622 L-1.42108547e-14,8.01574756 C8.88188978,8.01574756 20.9133858,8.01574756 34.2362204,8.01574756 C34.5354329,8.01574756 34.9606298,7.90551156 35.3543307,7.76377911 L27.1181102,12.5826764 C26.7244093,12.8188969 26.5669293,13.4015738 26.7874018,13.7952747 C27.0236222,14.2047236 27.6062991,14.362204 28.015748,14.1259836 C32.015748,11.7952747 36,9.44881822 40,7.13385778 C36.015748,4.78740133 32,2.45669276 28.015748,0.125984244 C27.5590551,-0.110236213 27.1968502,0.0787401511 26.8503938,0.33070864 Z" id="Shape"></path>
                </g>
            </g>
        </g>
    </g>
</svg>