<?xml version="1.0" encoding="UTF-8"?>
<svg width="190px" height="212px" viewBox="0 0 190 212" version="1.1" xmlns="http://www.w3.org/2000/svg" xmlns:xlink="http://www.w3.org/1999/xlink">
    <!-- Generator: Sketch 48.2 (47327) - http://www.bohemiancoding.com/sketch -->
    <title>smush-graphic-dashboard-summary</title>
    <desc>Created with Sketch.</desc>
    <defs>
        <rect id="path-1" x="0" y="0" width="192" height="294.232932"></rect>
        <polygon id="path-3" points="0.0420975165 0.153082421 71.7578196 0.153082421 71.7578196 130.574957 0.0420975165 130.574957"></polygon>
    </defs>
    <g id="Free-/-CDN---Upgrade" stroke="none" stroke-width="1" fill="none" fill-rule="evenodd" transform="translate(-220.000000, -161.000000)">
        <g id="Top-/-Free---New" transform="translate(190.000000, 132.000000)">
            <g id="Graphic-/-Dashboard---Top" transform="translate(30.000000, 29.036145)">
                <g id="smush-graphic-dashboard-summary">
                    <mask id="mask-2" fill="white">
                        <use xlink:href="#path-1"></use>
                    </mask>
                    <g id="mask"></g>
                    <g id="graphic" mask="url(#mask-2)">
                        <path d="M77.3656663,100.449695 C69.1752273,99.3654371 60.4983883,98.3397547 52.9182907,101.530331 C44.693198,104.992348 39.42272,112.685419 34.0186224,119.610361 C23.8351298,132.659505 11.6860566,144.174504 1.37893463,157.132764 C0.553490732,158.170524 -0.305982439,159.447419 0.107051707,160.69412 C0.424241951,161.651866 1.39267122,162.240041 2.29085659,162.74639 C4.90580293,164.220752 7.66217366,165.736178 10.6873444,165.829778 C13.7481054,165.924889 16.6384078,164.546241 19.2795785,163.047724 C25.0224078,159.789514 30.3147395,155.790047 34.9723785,151.18912 C41.8028956,144.44202 47.6350127,136.151415 56.6112468,132.437581 C61.51552,130.408559 67.2508566,129.803476 71.1767102,126.310963 C74.1063493,123.70524 75.5177834,119.913808 76.825881,116.278176 C78.8027005,110.784118 80.7305054,104.502907 77.8698615,99.385365" id="Fill-3" fill="#345468"></path>
                        <path d="M49.4181151,136.73663 C49.4149932,136.722137 53.1575883,133.990205 53.1544663,133.975712 C53.8522224,130.982905 54.6389541,128.009423 55.5109151,125.058887 C55.9785834,123.476432 51.5685151,124.465882 50.2501151,123.480659 C48.8577249,122.440181 47.1056859,122.403949 45.557198,123.161209 C43.0112468,124.406098 41.2507785,126.369297 39.8921054,128.632924 C32.5895493,133.330471 25.2869932,138.02832 17.9844371,142.726169 C16.1468566,143.908255 15.1824859,146.388069 16.4687298,148.317451 C17.6500761,150.089826 20.2815688,151.049988 22.249959,149.783661 C23.2215102,149.15865 24.1930615,148.533639 25.1646127,147.908628 C23.2112078,150.24472 21.3505249,152.649956 19.702759,155.194687 C17.8161639,158.108084 16.275481,161.231327 15.1340956,164.487424 C15.0660371,164.680664 15.021081,164.881754 14.9942322,165.08677 C16.481842,164.56321 17.9145054,163.822557 19.2797346,163.047785 C25.0222517,159.789575 30.3148956,155.790108 34.9725346,151.189181 C39.798759,146.421886 44.1276566,140.88616 49.4181151,136.73663" id="Fill-5" fill="#161C23"></path>
                        <path d="M80.2388293,73.6932736 C80.2388293,73.6932736 79.6153756,85.398191 78.652878,90.0338407 C77.6906927,94.6697924 72.1176976,100.039151 70.2798049,100.670201 C68.4419122,101.301552 60.2686439,108.454155 59.0226732,112.828628 C57.7770146,117.203102 56.8507317,124.102077 61.2817171,143.198731 C65.7130146,162.295688 62.9859902,175.814647 57.281561,186.900894 C51.5771317,197.987141 38.8314537,209.44145 34.5662439,221.807007 C30.3010341,234.172867 80.2388293,253.705217 80.2388293,253.705217 L132.311727,229.202972 C132.311727,229.202972 126.440898,203.413868 125.157776,192.247305 C123.874654,181.080743 125.007922,161.884751 138.738888,137.774118 C140.923941,123.994889 142.57358,94.7220276 138.738888,94.2893508 C134.904195,93.8566741 117.202107,90.9151969 112.60722,85.5391959 C110.477424,82.3803235 111.088078,69.4145142 111.088078,69.4145142 L80.2388293,73.6932736 Z" id="Fill-7" fill="#345468"></path>
                        <path d="M73.7011824,148.409271 C71.897319,149.007409 78.6198166,139.365934 77.1425093,140.370179 C76.966119,140.445663 73.1489093,143.121435 73.0870946,143.149818 C72.80768,143.258817 70.5411434,143.760939 70.2592312,143.863296 C69.5967532,144.103639 68.7385288,142.994018 68.0626263,143.196014 C67.236558,143.442697 62.1240507,143.010322 61.2817483,143.198731 C62.9891434,157.448682 61.9938654,177.743425 57.2815922,186.900894 C54.7159727,191.886792 50.7264312,196.94757 46.724402,202.13184 C47.0241093,203.051241 47.6406946,203.863453 48.5682263,204.337495 C50.5615922,205.355931 53.1971434,204.864075 54.3497678,202.871286 C58.2203629,196.177629 61.302041,189.009023 63.4115434,181.613663 C64.4324215,178.034493 65.1248702,174.383462 66.0386654,170.779534 C66.5119532,168.912049 67.0542361,167.058152 67.7582361,165.258603 C67.8465873,165.033659 68.3551532,163.911357 68.0036215,164.646273 C68.1681483,164.30297 68.329241,163.959063 68.5040702,163.620289 C68.8552898,162.940023 69.238041,162.275156 69.6541971,161.630217 C69.8917776,161.261249 70.1402849,160.899226 70.4003434,160.544751 C70.4259434,160.509726 70.4915044,160.422164 70.5542556,160.338226 C70.6329288,160.24221 70.7353288,160.116 70.7621776,160.084598 C71.3313093,159.425166 71.9444605,158.801967 72.604441,158.227077 C72.7133971,158.132269 72.8267239,158.041386 72.9381776,157.949295 C74.3124605,157.334851 75.6561483,156.647339 76.9570654,155.878606 C78.7606166,154.813369 79.5070751,152.65693 78.686002,150.775254 C77.9139434,149.006201 75.7039141,147.745008 73.7011824,148.409271" id="Fill-9" fill="#161C23"></path>
                        <path d="M127.915208,148.04764 C127.155013,149.01535 126.451949,150.011443 125.794779,151.028973 C124.946232,151.624394 124.404574,152.606899 124.237237,153.642848 C122.872632,156.1441 121.776827,158.764013 120.902369,161.460015 C120.696944,161.370641 120.481218,161.299686 120.257061,161.250168 C118.256203,160.809641 116.687735,161.622457 115.485159,163.128221 C115.2123,163.470014 114.952554,163.818752 114.704047,164.173529 C114.189861,163.711564 113.60793,163.382754 112.992593,163.197666 C112.981666,162.790956 112.976047,162.383944 112.979793,161.97663 C112.999149,159.838609 111.02233,157.791774 108.754232,157.889903 C106.448047,157.989845 104.549276,159.685225 104.528671,161.97663 C104.499637,165.190153 104.978857,168.378616 105.582642,171.537186 C105.486798,172.146496 105.399071,172.752787 105.301979,173.345491 L103.610818,183.686858 C102.47193,190.651655 101.333042,197.616452 100.194154,204.580948 C99.861042,206.618121 100.558798,208.552334 102.640827,209.402289 C104.74034,210.259188 106.608827,209.36817 107.917237,207.730158 C108.319344,207.226526 108.705842,206.71142 109.078603,206.188162 C109.213471,206.699946 109.365822,207.210825 109.541276,207.719892 C110.109471,209.372397 111.705725,210.802978 113.615422,210.720247 C115.444261,210.641139 117.231579,209.514006 117.690193,207.719892 C118.306466,205.30741 118.618349,202.888285 118.751032,200.463725 C118.874349,200.89459 119.000164,201.325455 119.13191,201.754811 C119.732574,203.713481 121.680983,204.953237 123.76832,204.682097 C124.9531,204.528108 126.137881,203.809195 126.83033,202.805856 C126.093549,198.790084 125.480398,195.05602 125.157588,192.247396 C124.03993,182.519869 124.757666,166.699238 134.03673,146.845324 C133.775735,146.659632 133.494447,146.499001 133.191618,146.375509 C131.103969,145.52344 129.208944,146.400268 127.915208,148.04764" id="Fill-11" fill="#161C23"></path>
                        <path d="M19.8473678,156.632363 C23.1163629,158.6949 24.9854751,162.271352 26.4053385,165.787718 C27.8255141,169.304085 28.9921873,173.009163 31.4057678,175.975701 C34.578919,179.875528 39.5047337,182.008718 44.3462556,183.651863 C49.1877776,185.295008 54.2459629,186.641952 58.4403044,189.500397 C55.0292605,192.331063 51.5748215,195.112815 48.0785483,197.844445 C47.4591532,198.328452 46.8132215,198.823328 46.0433483,199.019889 C45.177319,199.240605 44.2628995,199.057933 43.3875044,198.874657 C34.3894166,196.991471 24.8883824,194.855866 18.2779629,188.658594 C15.8690654,186.400402 13.9615532,183.697154 12.1402068,180.972468 C7.90184585,174.632984 4.03187512,168.062819 0.554958049,161.303641 C0.332675122,160.870965 0.106645854,160.379108 0.267114146,159.921672 C0.427270244,159.464539 0.91585561,159.206986 1.36791415,159.002876 C7.02051902,156.450898 13.4358166,155.504324 19.6182166,156.309894" id="Fill-24" fill="#00879F"></path>
                        <path d="M44.346318,183.651833 C39.5047961,182.008688 34.5789815,179.875498 31.4058302,175.975972 C28.9922498,173.009132 27.8255766,169.304055 26.405401,165.787688 C25.6530107,163.924431 24.7713717,162.046076 23.6249912,160.383003 C24.8206985,159.593738 25.9895571,158.767032 27.1362498,157.912549 C26.0732254,139.878413 33.4045034,121.481348 46.8391961,108.907454 C49.7407376,106.191524 52.9482302,103.71171 56.6327571,102.114459 C60.6010693,100.39432 64.9202888,99.7735361 69.2913327,99.5555371 C63.6587083,99.1449018 58.0382595,99.3752803 52.9185717,101.53021 C44.6931668,104.992228 39.423001,112.685601 34.0185912,119.61024 C23.8350985,132.659384 11.6860254,144.174383 1.37921561,157.132644 C0.553771707,158.170404 -0.306013659,159.447298 0.107020488,160.694301 C0.233459512,161.076252 0.464796098,161.399024 0.752952195,161.681637 C4.17929366,168.307358 7.98120585,174.751313 12.1399571,180.972438 C13.9616156,183.697124 15.86944,186.400372 18.2780254,188.658564 C24.8884449,194.855836 33.2808741,197.237822 42.278962,199.121008 C43.1543571,199.304284 46.4186693,200.018971 47.2843863,199.797952 C48.0545717,199.601391 47.4592156,198.328421 48.0786107,197.844415 C51.5748839,195.112785 55.0293229,192.331033 58.4403668,189.500367 C54.2457132,186.641922 49.18784,185.294978 44.346318,183.651833" id="Fill-26" fill="#00CABC"></path>
                        <path d="M136.457897,128.689266 C145.988277,132.55588 153.078228,140.461515 159.197565,148.516609 C165.316901,156.571704 168.504726,165.608398 176.521272,171.917386 C176.90777,172.221739 179.763731,172.093718 180.227653,172.269144 C181.077136,172.590405 182.029019,172.449098 182.928453,172.302961 C185.17657,171.937918 188.067184,172.283335 188.04814,170.078887 C188.041272,169.245539 189.761467,167.721962 187.788394,164.153662 C185.939262,160.809098 182.989019,155.170411 181.284745,151.754891 C174.645604,138.447892 170.528375,128.829969 164.072804,115.439031 C162.310462,111.782565 157.995614,105.371522 155.301058,102.292059 C148.415906,94.4232602 139.443419,93.7668476 128.836901,94.7840758 C129.808765,101.432744 130.780628,108.081111 131.753116,114.729477 C132.336921,118.724415 133.042794,122.97902 135.848804,125.964278 C136.568101,126.72969 137.375126,128.043723 136.466014,128.58872" id="Fill-28" fill="#345468"></path>
                        <path d="M66.1056,108.586977 C66.1056,108.586977 45.0939317,128.277543 53.6611902,140.468278 C62.228761,152.658712 80.2186927,148.268537 92.2101073,140.83785 C97.327922,137.665995 103.815024,111.526341 103.815024,111.526341 C103.815024,111.526341 72.6445268,101.275857 66.1056,108.586977" id="Fill-30" fill="#345468"></path>
                        <path d="M77.8699239,99.3852442 L77.3657288,100.449575 C74.7073873,100.097817 71.9978459,99.7530043 69.2914263,99.5555371 C64.9203824,99.7735361 60.6011629,100.39432 56.6328507,102.114459 C52.9480117,103.71171 49.7408312,106.191524 46.8389776,108.907454 C46.5951532,109.135719 46.3575727,109.370022 46.1174946,109.602213 C47.2223532,113.150283 49.1382946,116.489714 51.3430166,119.528415 C54.2276995,123.504331 58.8628605,128.963063 62.0675434,132.724905 C64.48768,131.985157 65.5051239,129.625212 67.7104702,128.564203 C70.118119,124.037553 73.7008702,120.06375 76.9483239,115.935356 C78.8801873,110.524028 80.6712507,104.396806 77.8699239,99.3852442" id="Fill-32" fill="#161C23"></path>
                        <path d="M94.4542283,142.134039 C94.4542283,142.134039 100.723731,150.520359 122.280492,149.005537 C143.837253,147.490716 141.05497,127.852385 141.037175,118.81237 C141.01938,109.772354 137.495321,105.900909 138.739106,94.2892904 C121.449428,96.7301549 110.164823,93.4692276 104.637721,99.1024795 C99.1109307,104.735731 94.4433015,101.216044 94.4542283,142.134039" id="Fill-34" fill="#00ADB9"></path>
                        <path d="M75.3103298,79.8085389 C75.1273834,80.3737663 103.652027,78.3450468 117.59154,81.3861634 C122.988144,91.3301801 128.492457,101.621727 129.429979,112.815464 C129.850505,117.840009 129.328827,122.904411 128.363832,127.858303 C127.437549,132.614124 126.066076,137.375983 123.376203,141.45637 C120.053198,146.49722 114.935383,150.185691 111.210271,154.956307 C108.838213,157.994404 107.065569,161.42804 105.482115,164.913307 C100.053042,176.861888 96.6966322,189.688202 95.5952078,202.695679 L82.6172566,203.740987 C85.5134907,188.085517 80.73472,172.159812 76.0055883,156.927658 C75.573198,155.536027 75.125198,154.112693 74.2279493,152.947213 C73.1742907,151.57853 71.6030127,150.692342 70.2156176,149.637976 C63.5721054,144.590785 61.2974517,135.60844 62.2000078,127.484504 C63.1028761,119.36087 66.6640859,111.776798 69.8303688,104.202087 C72.9969639,96.6270734 75.8532371,88.6296492 75.2329054,80.4812561 L75.3103298,79.8085389 Z" id="Fill-36" fill="#00CABC"></path>
                        <path d="M82.3505795,96.7089287 C81.8466966,96.125887 81.3259551,95.5552247 80.848921,94.9782217 C79.9863259,93.934725 79.3182283,93.0452165 77.8365502,93.0775238 C76.4394771,93.1080195 75.0055649,93.4042204 73.650638,93.7100833 C73.6456429,93.7112911 73.6406478,93.7124988 73.6353405,93.7137066 C72.6238283,97.2789871 71.2595356,100.783578 69.8303063,104.201815 C66.6640234,111.776828 63.1028137,119.3609 62.2002576,127.484534 C62.0085698,129.207995 61.9617405,130.970103 62.0675746,132.724965 C62.9329795,133.743099 63.7952624,134.761837 64.6472429,135.785104 C64.7983454,135.966266 65.1654868,135.871458 65.2048234,135.642891 C67.0168039,125.141195 76.5440624,118.260639 81.528882,109.265612 C82.7227161,107.111589 83.6680429,104.813541 84.1488234,102.408003 C84.1531941,102.38566 84.1575649,102.363316 84.1619356,102.340671 C83.6755356,100.233146 83.0299161,98.3421098 82.3505795,96.7089287" id="Fill-38" fill="#00B1B2"></path>
                        <path d="M51.7197737,195.572485 C47.1230127,201.833163 41.5990322,208.24934 37.7752663,214.913709 C45.5280078,215.615714 65.0620566,218.461779 83.7700371,229.865665 C101.670681,224.556996 125.08313,221.560566 130.485354,220.913513 C129.187559,214.884119 127.472671,206.614951 126.288827,199.773344 C122.508457,199.807765 99.289881,199.685782 89.5431493,192.797979 C80.601881,197.040808 59.4525346,196.045319 51.7197737,195.572485" id="Fill-40" fill="#DAD7D0"></path>
                        <path d="M51.7197737,195.572485 C50.3848273,197.390452 48.9712078,199.222308 47.5441639,201.068959 C49.0673639,201.282127 50.6164761,201.249518 52.1396761,200.938824 C53.3366322,200.694858 54.4408663,200.189716 55.6197151,199.891704 C57.0267785,199.535719 58.4204176,199.667364 59.78752,200.118157 C62.1851785,200.90863 64.166681,202.510108 66.4397737,203.550283 C68.4618615,204.476024 70.6428566,204.919269 72.8756761,204.920778 C73.0901541,204.92108 73.2578029,204.714253 73.1972371,204.512559 C72.8310322,203.290315 72.2437932,202.182505 71.4558127,201.205435 C73.3327298,201.997719 75.3382712,202.424659 77.4159298,202.470554 C77.6266615,202.475385 77.8024273,202.259801 77.7374907,202.062334 C77.2520273,200.583443 76.4693541,199.264277 75.3994615,198.129595 L77.0881249,197.916729 C77.2826224,197.892272 77.4006322,197.7875 77.4218615,197.593958 C77.5045932,196.840019 77.3029151,196.16851 76.950759,195.557992 C67.5817834,196.414589 56.7792078,195.881669 51.7197737,195.572485" id="Fill-42" fill="#C1BBB1"></path>
                        <path d="M169.6896,161.26907 C169.637151,159.023861 172.068527,157.318516 174.389073,157.248769 C176.70962,157.179021 178.878127,158.280792 180.894595,159.393734 C182.881717,160.49007 184.868215,161.645586 186.472585,163.222908 C188.076644,164.800231 189.282029,166.86307 189.366322,169.074159 C189.441561,171.035547 188.646088,172.922959 187.793171,174.704392 C183.302868,184.083181 176.87321,192.457122 171.680156,201.490192 C168.794537,206.510511 166.294478,211.727391 163.797541,216.939137 C162.385171,219.887559 160.972176,222.835981 159.559805,225.784705 C158.859863,227.245479 158.140566,228.734636 156.994498,229.902531 C154.936507,232.000394 151.8464,232.747388 148.933307,233.399876 C148.428176,233.512801 147.894946,233.625121 147.400117,233.477474 C146.833483,233.308389 146.430751,232.834648 146.070478,232.379326 C143.573229,229.227097 141.420644,225.820031 139.659863,222.232709 C142.026615,221.209141 144.443629,220.153566 146.320859,218.424067 C148.155005,216.735028 149.353522,214.512162 150.429346,212.294732 C157.272351,198.185786 160.493268,182.531221 168.375259,168.938891 C169.007454,167.848594 169.677737,166.751956 169.963083,165.53243 C170.248117,164.312904 170.084527,162.920669 169.206946,162.002476 L169.6896,161.26907 Z" id="Fill-44" fill="#161C23"></path>
                        <path d="M78.6530029,90.0338709 C78.6530029,90.0338709 85.2540566,98.4066037 85.0096078,110.379642 C84.7654712,122.35268 82.9734712,119.753298 91.8510517,142.51759 C95.760359,127.078911 102.1947,114.318117 103.497803,103.841784 C104.800905,93.3654516 109.026466,86.0422543 111.800632,83.4416648 C111.024827,71.5389782 111.088203,69.4142425 111.088203,69.4142425 L80.2389541,73.6933038 C80.2389541,73.6933038 79.4016468,87.8466341 78.6530029,90.0338709" id="Fill-46" fill="#C68657"></path>
                        <path d="M94.2757151,133.203446 C94.2313834,133.229412 94.1873639,133.255681 94.1436566,133.281648 C94.075598,133.25236 94.0012956,133.24149 93.9326127,133.255983 C93.9269932,133.111657 93.7896273,132.995109 93.6394615,132.967934 C93.7293737,132.877957 93.8208468,132.789489 93.915442,132.702229 C94.1948566,132.445582 93.8389541,132.020756 93.5114615,132.195578 C93.4590127,132.223658 93.1596176,132.403009 92.8886322,132.561224 C92.3956761,128.599198 92.1774517,124.524246 92.2539395,120.426951 C92.2608078,120.066136 92.00512,120.019637 91.9330029,120.285946 C91.8855493,120.218916 91.8215493,120.195667 91.7544273,120.266019 C91.0229541,121.036564 91.120359,122.932129 91.0591688,124.289339 C90.9536468,126.631771 90.7653932,128.960013 90.4984663,131.255646 C90.4185444,131.94346 90.3305054,132.626745 90.2365346,133.30701 C90.0139395,134.388249 89.7804176,135.462242 89.5431493,136.533819 C89.9930224,137.71832 90.4825444,138.992196 91.016398,140.370239 C91.1834224,140.184246 91.3501346,139.997044 91.5193444,139.818297 C91.6123785,139.978626 91.8480859,140.047468 92.0422712,139.897405 C92.1630907,139.803804 92.2817249,139.70809 92.4000468,139.612678 C92.3838127,139.643475 92.3660176,139.672763 92.3504078,139.703561 C92.264242,139.872948 92.3441639,140.055016 92.4793444,140.142276 C93.1312078,137.759384 93.83552,135.442012 94.5629346,133.188953 C94.4742712,133.151512 94.3709346,133.146983 94.2757151,133.203446" id="Fill-48" fill="#BB6D35"></path>
                        <path d="M114.535024,70.9985399 C114.484449,70.9647228 114.426693,70.9336232 114.362068,70.905845 C113.68679,70.6177964 116.308917,61.7981958 115.646751,62.0107599 C113.613424,62.6629454 107.613971,72.8768944 105.580332,73.5290798 C102.712507,74.449386 99.8321951,75.3724096 96.8572878,75.8857037 C93.8826927,76.3989978 90.7882146,76.4913907 87.8635707,75.7555685 C85.5942244,75.1846043 82.6227512,69.6060031 80.6808976,68.3514519 C79.702478,67.7191943 79.6887415,71.4614104 78.7078244,70.8424381 C76.7681561,69.6186845 78.9113756,71.8204143 78.8885854,72.0818924 C78.72,74.0390526 79.0253268,75.9427699 79.8098732,77.7586233 C79.844839,77.8398446 79.8966634,77.9047612 79.9581659,77.9530712 C79.9050927,78.700669 79.8464,79.5050311 79.7820878,80.334152 C79.7892683,80.343814 79.7948878,80.3540799 79.8023805,80.3637419 C81.6299707,82.7010418 82.5365854,85.5063451 82.2656,88.4402738 C82.1219902,89.9952531 81.4897951,91.4270417 80.9643707,92.8857028 C80.9006829,93.0623364 80.8413659,93.2398757 80.7845463,93.4174151 C82.6898732,96.9380088 85.1608976,102.968611 85.0097951,110.379672 C84.8334049,119.020827 83.8518634,120.07308 86.656,128.546358 C86.718439,126.36818 86.9191805,124.186378 87.0506146,122.037487 C87.4236878,115.92657 86.9223024,109.831353 85.4621659,103.919111 C85.3307317,103.310706 85.1821268,102.704717 85.0151024,102.10054 C84.5508683,100.423578 83.9729951,98.7312169 83.958322,96.9793743 C83.9433366,95.2239084 84.7291317,93.6562478 85.2932683,92.0239726 C85.8055805,90.5426661 86.0862439,88.977723 86.0928,87.4142895 C86.0962341,86.6437444 86.0350439,85.8722936 85.9139122,85.109297 C87.4024585,86.3191614 88.8922537,87.7491384 90.5740488,88.6709542 C92.3529366,89.6456092 94.208,89.4901113 96.1626537,89.2721122 C98.2534244,89.0390163 100.359493,88.8062223 102.43278,88.4514455 C104.589737,88.0830815 105.919688,86.9885573 107.413854,85.5335195 C108.832156,84.1524564 110.250459,82.7713933 111.668761,81.3903301 C111.551063,79.5213357 111.457405,77.9367666 111.382166,76.5904263 C111.670634,76.0861903 111.991259,75.597957 112.3456,75.1290478 C112.82919,74.4895437 113.377093,73.9043884 113.960273,73.3494269 C114.288702,73.0369214 114.595278,72.8174126 114.678634,72.3593731 C114.73202,72.0652858 114.497561,71.8644972 114.223141,71.812262 C114.878439,71.7551958 114.960859,71.283871 114.535024,70.9985399" id="Fill-50" fill="#BB6D35"></path>
                        <path d="M67.6533073,192.273574 C66.7114146,191.809798 65.7361171,191.480082 64.7364683,191.188108 C64.7389659,191.188108 64.7411512,191.18841 64.7436488,191.18841 C65.2531512,191.221925 65.8432,191.198374 66.3124293,191.405503 C66.6861268,191.570361 67.0264195,191.865656 67.3639024,192.087882 C67.4594341,192.150987 67.5571512,192.211073 67.6533073,192.273574 M77.7041171,199.649912 C77.0984585,199.057208 76.4746927,198.481413 75.8343805,197.924036 C74.2958829,196.585244 72.6584195,195.344582 70.9422829,194.21926 C71.2341854,194.373853 71.5260878,194.528143 71.822361,194.674583 C73.1916488,195.350923 74.9287024,196.300215 76.4878049,196.39442 C76.8999024,196.419481 77.4737171,196.417065 77.7621854,196.088255 C78.1143415,195.687282 77.7912195,195.375984 77.5320976,195.012451 C76.5824,193.681509 75.4678634,192.420014 74.3773659,191.197166 C73.7891902,190.538036 73.1769756,189.849014 72.5113756,189.221587 C73.9624585,189.51175 76.3164098,189.812781 76.080078,188.499956 C75.9636293,187.851696 74.8440976,187.373125 74.3617561,187.027104 C73.2247415,186.211872 72.0877268,185.39664 70.9507122,184.581409 C70.0366049,183.926204 69.0972098,183.053302 68.0379317,182.624248 C67.0326634,182.216934 65.8344585,182.420742 64.7842341,182.506795 C62.1193366,182.725699 59.4825366,183.163207 56.8885073,183.79003 C56.8354341,183.803013 56.7932878,183.825055 56.7592585,183.852833 C54.5401756,184.255014 52.312039,184.511359 50.0657951,184.781593 C48.0062439,185.02888 44.9298732,199.453955 45.9382634,199.638137 C48.156722,200.042733 50.6733268,199.726302 52.6819902,199.363675 C53.6088976,199.196402 54.492722,198.927073 55.4030829,198.701828 C56.5416585,198.419818 57.5494244,198.850381 58.6358634,199.174058 C60.464078,199.71815 62.2851122,200.287303 64.0746146,200.941904 C65.8291512,201.583521 67.5593366,202.310587 69.3841171,202.750209 C70.1065366,202.924125 72.523239,203.662966 73.0355512,202.822976 C73.5403707,201.995364 72.1660878,200.869137 71.6615805,200.424684 C70.5027122,199.403229 69.1162537,198.666199 67.6739122,198.090404 C65.6103024,197.266114 63.4589659,196.603965 61.2920195,195.988012 C63.5382634,196.293271 65.7870049,196.604568 67.8930732,197.434897 C70.9235512,198.629967 73.5010341,200.902954 76.8115512,201.409907 C77.3706927,201.495657 78.5626537,201.623377 78.5420488,200.766478 C78.5308098,200.30874 77.9963317,199.935847 77.7041171,199.649912" id="Fill-56" fill="#C68657"></path>
                        <path d="M59.3272507,186.730179 C57.71008,185.732576 55.9908215,184.901644 54.1981971,184.26063 C52.8260995,184.45387 51.449319,184.615105 50.0656702,184.781473 C48.0064312,185.02876 46.127641,185.628106 44.6490849,187.090994 C44.4720702,187.266118 44.3034849,187.4503 44.1427044,187.641125 C43.3809483,188.323806 42.7421971,189.148096 42.2788995,190.097992 C41.1384507,192.435896 40.9127337,196.362294 43.039719,198.279598 C43.025358,198.386182 43.0593873,198.498503 43.1739629,198.575799 C44.2257483,199.284447 45.5094946,199.634393 46.858802,199.76483 C45.5400898,196.457404 48.6192702,193.550348 51.0369093,191.580808 C53.4392507,189.62395 56.2433873,188.192765 59.247641,187.319863 C59.5279922,187.23834 59.5695141,186.879638 59.3272507,186.730179" id="Fill-60" fill="#00CABC"></path>
                        <path d="M68.4054478,148.061348 C68.5930771,148.216544 70.020121,149.489815 70.2155551,149.638066 C70.6879063,149.99707 71.1811746,150.33675 71.6685112,150.682469 C78.5608429,148.981654 85.4278868,144.76298 90.6646478,140.050034 C90.7202185,140.000215 90.7745405,139.942545 90.8288624,139.88578 C90.448921,138.902973 78.1659161,148.086409 68.4054478,148.061348" id="Fill-62" fill="#00B1B2"></path>
                        <path d="M52.9184156,101.53021 C50.091801,102.719844 47.6142205,104.409488 45.3604839,106.395634 C45.5306302,107.482006 45.7872546,108.552677 46.1150595,109.604628 C46.355762,109.371834 46.594279,109.136625 46.83904,108.907454 C49.7408937,106.191524 52.9480741,103.71171 56.6329132,102.114459 C60.6009132,100.39432 64.9204449,99.7735361 69.2914888,99.5555371 C63.6585522,99.1449018 58.0384156,99.3752803 52.9184156,101.53021" id="Fill-64" fill="#00B1B2"></path>
                        <path d="M129.096617,123.385005 L128.82126,123.114167 L91.8433093,142.51759 C90.2320702,143.47594 83.1664702,155.950799 94.5594068,168.42596 C96.670158,170.737595 99.0980995,172.735215 101.652168,174.457165 C102.785124,171.224318 104.062002,168.038573 105.481865,164.913518 C107.065631,161.428251 108.837963,157.994615 111.210334,154.956518 C114.935446,150.185902 120.053573,146.497129 123.376265,141.456279 C126.066139,137.375893 127.437612,132.614033 128.363582,127.858212 C128.652363,126.375698 128.900558,124.88322 129.096617,123.385005" id="Fill-66" fill="#00B1B2"></path>
                        <path d="M159.197534,148.516609 C165.317182,156.571704 168.504695,165.608398 176.521241,171.917386 C176.679524,172.042086 177.251465,172.09402 177.903641,172.124213 C177.837768,172.107607 177.771582,172.090094 177.706646,172.076507 C177.417241,171.898666 176.86247,171.548418 177.042295,171.722032 C176.755387,171.471726 176.491895,171.202398 176.224031,170.930352 C176.213729,170.919784 176.202802,170.906801 176.191251,170.893213 C176.198119,170.904083 176.203739,170.912839 176.211231,170.924313 C176.20249,170.910726 176.192812,170.897742 176.183758,170.884155 C176.116324,170.80233 176.040148,170.684876 176.016421,170.642605 C175.97927,170.59037 175.941807,170.538135 175.906217,170.484994 C175.673943,170.138067 175.459153,169.781177 175.255914,169.418248 C174.788558,168.583692 174.388012,167.716527 173.986217,166.851777 C172.18329,162.97067 170.38848,159.085637 168.589612,155.202718 C166.889085,151.531759 165.375875,147.676921 163.250451,144.210676 C161.046353,140.615805 157.857904,137.782724 154.807134,134.878989 C151.264343,131.50725 147.721553,128.135512 144.179075,124.763471 C142.601553,123.262237 139.75527,123.128177 138.203036,124.763471 C137.096617,125.928951 136.716051,127.577531 137.212753,129.008112 C146.364441,132.978291 153.241163,140.675891 159.197534,148.516609" id="Fill-68" fill="#161C23"></path>
                        <path d="M188.57984,166.096238 C188.43904,165.525878 188.192094,164.883053 187.788738,164.153571 C185.939606,160.809007 182.98905,155.17032 181.284777,151.754801 C176.943391,143.053862 173.680016,135.929339 170.136913,128.296656 C171.780308,133.067876 173.213596,137.899785 174.315957,142.820162 C175.403645,147.678038 176.162591,152.731569 175.127977,157.600315 C174.340308,161.307204 172.339138,164.911435 169.322708,167.234845 C169.035177,167.814868 168.700503,168.377982 168.375196,168.938982 C160.493206,182.531312 157.272289,198.185575 150.429284,212.294822 C149.353772,214.512253 148.155255,216.734816 146.32142,218.424158 C144.443567,220.153355 143.058669,220.653364 139.659801,221.15911 C141.420269,224.746432 143.573167,229.227187 146.070416,232.379417 C146.430689,232.834437 144.124191,236.756608 144.690201,236.925693 C145.185655,237.073341 146.033577,236.547969 146.538084,236.435044 C149.451489,235.782557 154.936445,232.000485 156.994435,229.902622 C158.140503,228.734727 158.859801,227.24557 159.559742,225.784795 C160.972113,222.836072 162.385108,219.88765 163.797479,216.939228 C166.294416,211.727481 168.794474,206.510601 171.680094,201.490283 C176.873147,192.457212 183.303118,184.08297 187.793108,174.704181 C188.645713,172.92305 189.441811,171.035637 189.366572,169.073948 C189.326923,168.036792 189.038455,167.033453 188.57984,166.096238" id="Fill-72" fill="#00CABC"></path>
                        <path d="M73.8039259,201.903726 C73.6734283,201.801067 73.5291941,201.708675 73.3796527,201.620509 C72.7958478,200.996705 71.6304234,200.836376 70.8817795,200.617774 C70.660121,200.552857 70.5121405,200.69507 70.4815454,200.862645 C70.4490771,200.884988 70.4197307,200.913673 70.3956917,200.949905 C69.8365502,201.793519 70.2036917,202.303492 71.0469307,202.685745 C71.7674771,203.012442 72.9432039,203.527245 73.7452332,203.26305 C74.463282,203.026633 74.2728429,202.272392 73.8039259,201.903726" id="Fill-82" fill="#00B1B2"></path>
                        <path d="M78.8648898,200.248534 C78.7050459,200.089413 78.5255337,199.947502 78.3382166,199.812838 C77.9086361,199.341815 77.3351337,198.946579 76.8762068,198.561306 C76.6486166,198.370481 76.3748215,198.046804 76.0516995,198.01812 C76.0161093,198.015101 75.9876995,198.017516 75.9589776,198.019932 C75.8906068,197.980378 75.8075629,197.967998 75.7170263,198.003929 C75.6895532,198.014799 75.6645776,198.027178 75.6383532,198.038954 C75.638041,198.038048 75.6377288,198.037444 75.6374166,198.036538 C75.6264898,198.041369 75.6171239,198.04771 75.6065093,198.053145 C75.2599727,198.216795 75.0351922,198.46227 74.9633873,198.85328 C74.9552702,198.897967 74.9568312,198.939634 74.9646361,198.978282 C74.9590166,199.017232 74.9555824,199.056484 74.9605776,199.096642 C75.0074068,199.480706 75.5440702,199.76332 75.8222361,199.973167 C76.3704507,200.386821 76.9505093,200.757299 77.5636605,201.074636 C77.9083239,201.253081 78.4200117,201.609971 78.8321093,201.589439 C79.7256117,201.545054 79.2017483,200.583685 78.8648898,200.248534" id="Fill-84" fill="#00B1B2"></path>
                        <path d="M78.7563707,196.052355 C78.5381463,195.607298 78.1369756,195.169489 77.8428878,194.767308 C77.3686634,194.118142 76.9337756,193.360278 76.1226927,193.08008 C75.7845854,192.963532 75.6088195,193.377186 75.7927024,193.598507 C75.7942634,193.608169 75.7927024,193.617529 75.7948878,193.627493 C75.9100878,194.136258 76.5532098,194.694541 76.8794537,195.102157 C77.3240195,195.657118 77.7795122,196.203323 78.2531122,196.735338 C78.3970341,196.896874 78.6727024,196.836487 78.7769756,196.670119 C78.9165268,196.447591 78.8643902,196.272467 78.7563707,196.052355" id="Fill-86" fill="#00B1B2"></path>
                        <path d="M77.0982712,188.645007 C75.958759,187.948437 74.8189346,187.251867 73.6794224,186.555296 C73.6778615,186.55439 73.6769249,186.554692 73.6756761,186.553787 C73.629159,186.505175 73.5685932,186.518158 73.5308176,186.557108 C73.4493346,186.547446 73.3691005,186.628063 73.4187395,186.714417 C73.7178224,187.235562 74.1917346,187.566486 74.7302712,187.837928 C75.46112,188.206594 76.2278712,188.518495 76.985881,188.830699 C77.1145054,188.88384 77.2228371,188.721095 77.0982712,188.645007" id="Fill-88" fill="#00B1B2"></path>
                        <path d="M118.456663,23.7479145 C118.734829,19.5346756 96.1475122,7.74068659 95.392,7.72498583 C94.6364878,7.74068659 72.0491707,19.5346756 72.3273366,23.7479145 C72.6051902,27.9611533 72.2346146,36.5669821 72.4200585,41.138621 C72.6051902,45.7102599 72.2611512,59.8593631 73.1880585,62.0106693 C74.1927024,64.3425343 76.3078244,66.5019928 77.9093854,68.4528124 C80.3863415,71.4709818 84.3125073,74.4067222 87.236839,77.0320706 C90.708761,80.1486717 93.1754146,81.4427767 97.7734244,80.277901 C102.060488,79.1918311 105.042888,75.9402638 107.919766,72.880427 C109.878166,70.7970568 112.765659,67.1010373 114.553912,64.8790776 C115.564176,63.6236206 117.112663,63.8005561 117.753912,62.3126071 C118.68082,60.1613008 118.178498,45.7102599 118.363941,41.138621 C118.549385,36.5669821 118.178498,27.9611533 118.456663,23.7479145" id="Fill-90" fill="#C68657"></path>
                        <path d="M82.2587941,48.3046899 C79.1196722,46.9139648 76.9343063,44.1965254 77.5452722,40.6988789 C77.4450576,40.4102265 77.3638868,40.1224798 77.3198673,39.8380545 C77.1884332,38.9841746 77.3941698,38.1547517 78.2886088,37.5164554 C79.4549698,36.6834093 80.5813698,35.7452888 81.716199,34.8264923 C82.4710868,34.6383851 83.3277502,33.9952578 83.5943649,33.2382999 C81.5176429,32.2497559 79.389721,31.3626629 77.2180917,30.5881926 C75.6468137,31.2449071 74.4379941,32.7322523 73.383399,34.2292595 C73.4914185,37.1172937 73.7564722,40.000195 74.1807454,42.8607529 C74.2125893,43.0742229 74.2453698,43.2889006 74.2837698,43.5023706 C74.2990673,43.8435602 74.3502673,44.1657277 74.4326868,44.4694771 C75.3733307,47.2159025 78.1830868,48.7255911 81.3169015,48.2959337 C81.637838,48.2923105 81.9528429,48.2941221 82.2587941,48.3046899" id="Fill-92" fill="#BB6D35"></path>
                        <path d="M114.940503,44.531797 C114.888679,43.5000759 114.97266,42.4028342 114.723216,41.3934564 C114.688562,41.2533573 114.557128,41.1866291 114.42226,41.1718341 C113.394201,41.0592114 112.017733,42.2733029 111.894728,43.2920408 C111.890981,43.3110628 111.900347,43.3267636 111.900347,43.3482012 L111.900347,43.4418019 C111.900347,43.4692782 111.892542,43.4904138 111.898474,43.5136631 C111.85664,44.0689265 111.753303,44.5650102 111.52103,45.0873624 C111.314669,45.5511387 110.999977,45.9653973 110.859177,46.4575558 C110.573206,47.4557618 111.001538,48.4249819 111.284386,49.3824264 C111.339333,49.568722 111.566611,49.6629265 111.742064,49.5629851 C112.678025,49.0273476 114.707606,48.8627916 115.12782,47.7887991 C115.438767,46.9928913 114.983899,45.3886963 114.940503,44.531797" id="Fill-94" fill="#BB6D35"></path>
                        <path d="M121.052098,26.3155626 C117.118127,27.7395009 113.297483,29.6109108 109.648546,31.8823882 C109.66041,32.0282242 109.685073,32.169531 109.728156,32.3020817 C109.824312,32.5985845 109.973854,32.7878994 110.154302,32.9101842 C110.073444,32.954871 109.992585,33.0007655 109.911415,33.0493775 C109.55239,33.2664707 109.868332,33.9156368 110.226732,33.6991475 C110.728741,33.396002 111.2192,33.1909863 111.705912,33.0913469 C111.739629,33.090441 111.773346,33.0895352 111.806439,33.0895352 C111.860137,33.0895352 111.905405,33.0744383 111.944741,33.0511891 C112.755512,32.9443032 113.558478,33.1402608 114.386732,33.6991475 C115.8656,34.6964477 117.351961,35.8833649 117.770615,37.9806243 C118.562966,41.9489916 115.941776,45.4559982 113.686166,47.8790483 C113.273444,48.3222929 113.135766,49.0620403 113.211941,49.8020896 C113.972137,49.7163393 114.730146,49.6151902 115.475356,49.4189307 C117.096273,48.9916888 118.72999,48.0106932 119.522029,46.2543215 C119.947863,45.3104642 120.09522,44.225602 120.221659,43.1621774 C120.88601,37.5875013 121.163551,31.9457952 121.052098,26.3155626" id="Fill-96" fill="#BB6D35"></path>
                        <path d="M102.135633,45.9110183 C102.135633,45.9110183 104.752453,41.0863556 106.48014,40.1723901 C109.702619,39.1865635 114.446111,37.2964334 114.446111,37.2964334 C114.446111,37.2964334 116.067028,39.9848868 114.465467,42.8070986 C110.765955,43.7086846 102.135633,45.9110183 102.135633,45.9110183" id="Fill-98" fill="#FBF5E7"></path>
                        <path d="M113.183188,43.1225027 C113.309003,42.4769599 113.4011,41.8205473 113.423266,41.0961987 C113.441061,40.4932291 113.535969,39.873351 113.363013,39.3509988 C113.408281,39.3268437 113.447305,39.2939325 113.47072,39.2462264 C113.606525,38.9678398 113.766369,38.6631846 113.668964,38.3549062 C113.62432,38.2145052 113.4779,38.1206026 113.33273,38.1350956 C113.313686,38.12332 113.294954,38.1115444 113.276535,38.0997689 C113.188808,38.0445143 113.102642,38.0393813 113.029588,38.065046 C112.666193,38.0472317 112.488242,38.0810487 112.156066,38.2425854 C112.070837,38.2842528 112.028379,38.3573217 112.01433,38.4364294 C111.823891,38.423748 111.6091,38.5753208 111.664671,38.8126438 C111.76114,39.2250907 111.988105,39.5804714 112.089569,39.9974474 C112.242857,40.6272895 112.21351,41.3108765 112.242544,41.9521922 C112.265022,42.4380099 112.265022,42.8978611 112.248476,43.3549948 C112.572535,43.2740755 112.885354,43.1964775 113.183188,43.1225027" id="Fill-100" fill="#DAD7D0"></path>
                        <path d="M101.98503,45.9918168 L104.229089,45.4024344 C104.229089,45.4024344 113.819411,43.1074059 114.817811,42.9772707 C115.816523,42.8471355 116.773089,42.3199523 116.773089,42.3199523 C116.773089,42.3199523 116.007274,41.453693 114.977967,41.6780327 C114.652972,42.2432601 114.03264,42.8507588 113.535001,42.9268471 C113.037362,43.0029354 105.224055,44.8245256 104.165089,45.0087076 C103.105811,45.1928896 101.98503,45.9918168 101.98503,45.9918168" id="Fill-102" fill="#00B1B2"></path>
                        <path d="M111.635325,41.106827 C111.725237,42.5301613 110.605393,43.7545188 109.133705,43.8414768 C107.66233,43.9287368 106.396379,42.8456862 106.306466,41.4223519 C106.285549,41.0944475 106.328944,40.7774129 106.426037,40.4821178 C106.918681,39.972447 110.19673,38.9256289 110.574174,39.2000903 C111.177335,39.6388058 111.585686,40.3208831 111.635325,41.106827" id="Fill-104" fill="#000000"></path>
                        <path d="M108.331364,41.451972 C108.331364,41.451972 109.209569,41.9392994 109.71751,41.1542614 C110.804886,41.4133239 111.225413,41.7119403 111.225413,41.7119403 C111.225413,41.7119403 110.78834,43.269637 109.414993,43.4154729 C108.041022,43.5616108 107.355754,42.9550179 107.184047,42.7065232 C107.012027,42.4577265 108.331364,41.451972 108.331364,41.451972" id="Fill-106" fill="#012942"></path>
                        <path d="M111.060948,40.9122281 C110.857085,41.0284741 110.494002,40.995261 110.261417,41.0139811 C109.986997,41.0363245 109.711641,41.0517233 109.436285,41.063197 C109.150314,41.0755764 109.177475,41.504328 109.463446,41.4922504 C109.8309,41.4768516 110.197104,41.4536024 110.562997,41.4191815 C110.8165,41.3953284 111.084363,41.3968381 111.308207,41.2694204 C111.554841,41.1287174 111.306958,40.7718271 111.060948,40.9122281" id="Fill-108" fill="#627B8A"></path>
                        <path d="M102.133947,45.933875 C102.658435,45.2131497 105.32302,41.0418802 106.478142,40.3890908 C108.669752,39.1502404 111.446728,39.3295914 113.746357,38.289416 C115.924542,37.3041932 116.405635,36.6423457 116.703469,34.3343338 C115.441889,35.4466724 114.951118,36.2480151 113.651762,37.0131252 C112.768562,37.533062 110.261947,38.643287 109.350338,38.92892 C108.526455,39.1873787 107.729733,39.5243412 106.912406,39.7861212 C105.570903,40.2154766 104.401733,41.1086084 103.628738,42.2490271 C103.270962,42.7765123 103.071157,43.3586482 102.797674,43.9193466 C102.481733,44.5673049 102.194825,45.3025232 101.987216,45.9891296" id="Fill-110" fill="#00CABC"></path>
                        <path d="M115.170685,30.2081738 C112.1349,31.2326485 109.174665,32.4657621 106.322451,33.9005701 C106.037417,34.0442925 105.753007,34.1895245 105.465163,34.3338507 C103.108402,35.3296413 100.84967,36.8963961 100.07168,39.4061024 C99.985202,39.6847909 99.9171434,39.9755569 99.8665678,40.2780985 C99.4123239,42.6866557 99.1001288,45.4040951 98.8765971,47.6951985 C98.8491239,48.012535 98.8110361,48.327758 98.7576507,48.6384519 C98.7498459,48.7459417 98.7392312,48.8528276 98.7320507,48.9603175 C98.8603629,48.7435262 98.9989776,48.5303582 99.1457093,48.3199076 C99.292441,48.109457 99.4472898,47.9017238 99.6061971,47.6961043 C101.285495,44.8002197 102.84647,42.0827802 103.728421,39.0661205 C103.831134,38.758446 103.950392,38.4607354 104.08807,38.1754043 C104.777397,36.7496544 105.927836,35.6433546 107.759797,35.2423813 C108.020792,35.0896008 108.281787,34.9365184 108.543407,34.783436 C110.897358,33.4059961 113.334978,32.0448609 115.170685,30.2081738" id="Fill-112" fill="#BB6D35"></path>
                        <path d="M113.938981,26.9138522 C112.80665,24.4947272 111.27346,22.2739753 110.129264,19.8575678 C109.898552,19.3702404 109.513928,17.6434586 108.951977,17.2267845 C108.42624,16.836681 107.435333,17.2503357 106.905538,17.3931522 C104.231274,18.1138775 101.61383,19.119632 98.9785912,19.9659635 C96.2100449,20.85517 93.4536741,21.7830246 90.7076059,22.7347323 C87.9293815,23.6976117 85.0190985,24.5750427 82.3448351,25.785511 C81.5440546,26.1478362 79.1314107,27.040968 79.8263571,28.2351316 C80.256562,28.9742752 81.3289522,29.5962668 82.0894595,29.9471185 C82.6635863,30.2119178 85.5679376,30.7409127 85.7109229,31.3381455 C85.7808546,31.6310251 86.2110595,31.6086817 86.304718,31.3653199 C87.8653815,30.8988261 89.3682888,30.1485109 90.9258302,29.6346129 C92.6238595,29.0745185 94.3356254,28.5606205 96.0317815,27.9953931 C97.8384546,27.3930273 99.7028839,26.958539 101.51143,26.3625139 C102.74023,25.9576155 103.90503,25.3836319 105.115411,24.9316311 C105.000211,26.5113692 105.476308,27.9694264 106.581479,29.2556811 C107.048523,29.7994709 107.086299,29.8655953 107.705069,29.823324 C108.25703,29.7858837 108.94542,29.488777 109.505499,29.3782678 C110.409616,29.1998226 111.317167,29.0355685 112.216601,28.8368935 C113.790689,28.4890612 114.699801,28.5391829 113.938981,26.9138522" id="Fill-114" fill="#BB6D35"></path>
                        <path d="M80.7675005,69.8652166 C80.5371005,68.889052 80.2945249,67.9143971 79.9898224,66.9617836 C79.2143298,64.5378276 77.6393054,57.2683752 77.4953834,56.547046 C77.4763395,56.4513318 77.3758127,56.3556175 77.2774712,56.3362935 C77.2281444,56.3266315 77.1785054,56.3166675 77.1294907,56.3070055 C76.9974322,55.7300026 76.7664078,55.2155007 76.1457639,54.9171862 C74.9026029,54.3196515 73.2517151,54.9603633 72.1109541,55.4694303 C71.981081,55.5274024 71.9414322,55.6880332 71.9676566,55.8106199 C72.3288663,57.5047924 73.8061737,58.7315654 74.7533737,60.1289331 C75.8232663,61.7065577 77.0486322,63.3506085 77.929959,65.0278725 C79.0332566,67.1275474 79.9217639,69.2655683 80.5136859,71.4793757 C80.5901737,71.8918226 80.6576078,72.3012501 80.7131785,72.7025253 C80.9132956,74.1518264 80.733159,75.830902 81.3637932,77.1745248 C81.4952273,77.4538172 81.9519688,77.3064716 81.9457249,77.0223482 C81.889842,74.5784644 81.499598,72.2034223 80.7675005,69.8652166" id="Fill-116" fill="#BB6D35"></path>
                        <path d="M119.732574,61.3393108 C119.349198,59.7429661 118.334252,58.4479553 117.731091,56.9388706 C117.402037,56.1148826 116.853822,55.1329811 115.769881,55.1885377 C114.69874,55.2434903 114.358759,56.4612051 113.532691,56.9382667 C113.187715,57.1375456 113.549861,57.6297041 113.8939,57.4310291 C113.940105,57.4041566 113.981315,57.3712454 114.023774,57.3401458 C114.092457,59.5337233 113.391266,61.6750656 112.881764,63.7976877 C112.35353,65.9997194 111.74631,68.1887679 110.696086,70.2196009 C109.81632,71.9198122 108.981198,73.1360173 108.880983,75.0859311 C108.775774,77.1309552 109.006174,79.3852222 110.006447,81.2164744 C110.066076,81.3260778 110.181588,81.4380967 110.326135,81.4118281 C111.305491,81.2351946 111.903032,80.2644648 112.41191,79.521698 C113.179286,78.401811 113.961022,77.2837357 114.68032,76.1342588 C116.680242,72.9397578 119.017335,69.8521427 119.754427,66.1114364 C120.0635,64.5458894 120.106583,62.8982153 119.732574,61.3393108" id="Fill-118" fill="#BB6D35"></path>
                        <path d="M118.314583,54.8059222 C118.316457,54.5371976 118.317705,54.2672653 118.318642,53.9964272 C117.335227,54.5480674 116.166369,54.8865396 115.099598,55.1292975 C113.812418,55.422479 112.259871,55.824962 110.939286,55.703583 C109.751383,55.5942816 108.516027,55.0480762 107.339052,54.7998834 C106.803637,54.6866568 106.295071,54.4949263 105.756847,54.4007218 C105.496788,54.3551292 104.806525,54.3336916 104.493081,54.1498115 C104.426583,54.0329616 104.296398,53.948721 104.125003,53.9822361 C104.107208,53.9858594 104.089413,53.9891807 104.071305,53.9928039 C103.994193,54.0079008 103.93831,54.0483605 103.898974,54.0996899 C103.673881,54.0142415 103.448788,53.9290951 103.22432,53.8427409 C102.761647,53.6645976 102.155988,53.2310151 101.664905,53.1751566 C101.319305,53.1359047 100.788574,53.415801 100.462642,53.522083 C99.3250029,53.8937684 98.1836176,54.33188 97.0731395,54.7742187 C96.232398,55.1090677 95.4581541,55.5230243 94.544359,55.2277292 C94.0045737,55.0535111 93.4688468,54.8481935 92.9387395,54.6483107 C92.0349346,54.3071211 91.1664078,53.5930384 90.2479298,53.2319209 C90.3178615,53.0256974 90.1430322,52.7334217 89.846759,52.7907899 C88.8633444,52.9813126 87.8758712,53.3997983 86.920242,53.7038495 C85.8138224,54.0559089 84.6983493,54.3762648 83.5950517,54.7404017 C81.768398,55.3433713 79.7035395,55.91192 78.0376663,56.8690626 C77.9973932,56.8512483 77.9502517,56.8412843 77.8968663,56.8409824 C77.0555005,56.8367553 76.3221541,56.3062507 75.600359,55.9620417 C74.8785639,55.6178327 74.222642,55.2751334 73.5926322,54.7820691 C73.2919883,54.5465577 72.8942517,54.0066931 72.464359,53.764841 C72.4652956,54.0501721 72.4665444,54.3348994 72.4681054,54.6187208 C72.782798,54.9125062 73.1980176,55.2974768 73.2638907,55.3475985 C73.7181346,55.6942229 74.1911102,56.0055207 74.7049834,56.2642814 C75.669042,56.7488914 76.7751493,57.4804865 77.8968663,57.4859213 C77.9527493,57.4862233 78.0011395,57.4753535 78.0423493,57.4563314 C78.1285151,57.5001124 78.2352859,57.5058492 78.3451785,57.4421404 C80.0906615,56.4315548 82.2526127,55.8608926 84.1707395,55.2319563 C85.8394224,54.6848452 87.5886517,53.9858594 89.3213346,53.5673737 C89.3597346,53.6223264 89.4209249,53.6658054 89.5108371,53.6839216 C90.1617639,53.8149626 90.8039493,54.3336916 91.3549737,54.6543495 C91.918798,54.9825558 92.5253932,55.1833443 93.1404176,55.4046647 C93.7051785,55.6078688 94.2855493,55.8820282 94.8790322,55.9985762 C95.4160078,56.1042544 95.7503688,55.9777425 96.2661151,55.7851062 C97.6700566,55.2606404 99.0605737,54.6875626 100.477627,54.1978196 C100.757354,54.1011996 101.097959,53.9387571 101.392671,53.9124885 C101.747325,53.881087 101.915286,54.0287345 102.262759,54.1781937 C102.824086,54.4197439 103.40352,54.6344216 103.970154,54.8666117 C105.459325,55.4768278 107.025608,55.8965212 108.562544,56.3772061 C109.75232,56.7494953 111.386349,57.5928073 112.670408,57.4868272 C113.811481,57.3929245 115.004066,56.5782966 115.971247,56.0541327 C116.780144,55.6160211 117.562193,55.2515823 118.314583,54.8059222" id="Fill-120" fill="#BB6D35"></path>
                        <path d="M87.3316839,67.6312097 C90.831079,68.9440349 92.8116449,69.9120472 93.9342985,70.5880857 C94.4000937,70.6339803 94.888679,70.659343 95.4028644,70.659343 C95.9264156,70.659343 96.4240546,70.6261299 96.9007766,70.5705733 C97.9840937,69.9217092 99.8553912,69.0071399 103.076308,67.7821785 C103.312016,67.566897 103.53024,67.3507096 103.72786,67.1384473 C103.982299,66.4575778 106.252269,65.4448787 106.306903,64.7187185 L85.0077034,64.4919633 C85.0779473,65.4264605 86.8958595,67.057528 87.3316839,67.6312097" id="Fill-122" fill="#161C23"></path>
                        <path d="M86.2947902,67.6023143 C88.9718634,69.9707137 90.0405073,70.9130613 93.7331512,70.5163151 C94.2579512,70.5613038 94.8083512,70.5930073 95.3874732,70.5930073 C95.977522,70.5930073 96.5379122,70.5643232 97.0752,70.5096725 C98.2955707,69.8731878 100.403512,68.9779425 104.032156,67.7765323 C104.297834,67.5651759 104.543844,67.3260412 104.766127,67.1180062 C105.053034,66.4504219 105.186341,65.6339823 105.247532,64.7281692 L85.5274146,64.7281692 C85.6060878,65.6339823 85.8040195,67.0395024 86.2947902,67.6023143" id="Fill-124" fill="#FBF5E7"></path>
                        <path d="M84.2065171,64.3797934 C84.2065171,64.3797934 85.9101659,68.6706303 88.911922,71.8989483 C90.4891317,73.8404078 99.2346537,74.5336568 102.388761,71.6217695 C104.252566,69.5417206 106.057678,64.7433264 107.445073,64.0835925 C106.256234,64.2058773 104.539473,66.3526544 104.539473,66.3526544 C104.539473,66.3526544 100.955161,68.9378451 99.0913561,69.4928067 C97.2275512,70.0474662 95.2201366,70.4632345 95.2201366,70.4632345 C95.2201366,70.4632345 89.852878,69.3717296 89.136078,68.6784807 C86.8651707,66.4821857 85.1015805,64.3260485 84.2065171,64.3797934" id="Fill-126" fill="#345468"></path>
                        <path d="M99.9232937,57.2407479 C98.7741034,57.3123072 97.8940254,58.0294092 97.3380059,58.4952991 C96.7819863,58.961491 96.0592546,59.0330502 95.3920937,59.0330502 C94.7249327,59.0330502 94.0018888,58.961491 93.4458693,58.4952991 C92.890162,58.0294092 92.0097717,57.3123072 90.8605815,57.2407479 C89.7117034,57.1688867 90.7278985,57.7920862 91.3210693,58.0070658 C91.9139278,58.2220455 93.9157229,59.7891022 95.47264,59.7891022 C97.0292449,59.7891022 98.7978302,58.3576155 99.3906888,58.1423339 C99.9838595,57.9273543 101.072172,57.1688867 99.9232937,57.2407479" id="Fill-128" fill="#BB6D35"></path>
                        <path d="M76.1098615,30.2081738 C80.0837932,31.5490792 83.9287883,33.2480827 87.5705444,35.2888797 C88.425959,35.7683568 89.288242,36.2810471 89.910759,37.0241158 C90.6993639,37.9652556 91.0271688,39.1826685 91.2953444,40.3659624 C91.7717541,42.4683547 92.1207883,44.5973175 92.3505639,46.7383578 C92.36992,47.37756 92.4164371,48.0170641 92.5228956,48.6384519 C92.5307005,48.7459417 92.5413151,48.8528276 92.5484956,48.9603175 C91.0103102,46.3585202 87.9717151,44.2754519 87.363559,41.2684542 C87.1481444,40.203218 87.2536663,39.0627992 86.7956761,38.0718396 C86.3261346,37.0552154 85.3402224,36.3625702 84.3708566,35.7617142 C81.5601639,34.0186278 78.3757737,32.475726 76.1098615,30.2081738" id="Fill-130" fill="#BB6D35"></path>
                        <path d="M96.1603122,71.0374596 C95.316761,70.7430704 94.1276098,70.7566575 93.2259902,70.6210875 C91.9547317,70.4302629 90.467122,70.1974689 89.334478,69.605369 C89.2273951,69.5495106 89.1237463,69.5498125 89.0363317,69.5824218 C88.9286244,69.5244497 88.8118634,69.4921424 88.6844878,69.4963695 C88.5692878,69.5002947 88.4250537,69.5528319 88.3754146,69.6560946 C88.2055805,70.0096636 88.3694829,70.2620836 88.6211122,70.5335256 C88.6460878,70.5957247 88.6763707,70.6600375 88.7178927,70.730087 C89.4705951,71.990677 91.2956878,71.9638045 92.6537366,72.0347599 C93.7383024,72.0915242 95.5499707,72.460794 96.3182829,71.5767204 C96.4921756,71.3765357 96.4284878,71.1310603 96.1603122,71.0374596" id="Fill-132" fill="#FBF5E7"></path>
                        <path d="M87.6594263,67.9813669 C87.6288312,67.8907855 87.5604605,67.8116779 87.460558,67.781786 C87.4071727,67.7410244 87.3512898,67.704188 87.2950946,67.6733904 C87.1508605,67.5948866 86.9822751,67.6305152 86.8614556,67.723814 C86.8517776,67.7313624 86.8420995,67.7389109 86.8324215,67.7464593 C86.6853776,67.859686 86.7031727,68.0861392 86.8324215,68.2023853 C86.8558361,68.2235209 86.8811239,68.2392217 86.9073483,68.2531108 C86.9853971,68.3476173 87.0703141,68.4309521 87.1642849,68.5124753 C87.3437971,68.668879 87.7118751,68.6181535 87.7624507,68.3702626 C87.7908605,68.2304655 87.743719,68.0979148 87.6594263,67.9813669" id="Fill-134" fill="#FBF5E7"></path>
                        <path d="M116.088382,42.8608133 C115.9685,43.7146932 115.829573,44.5854815 115.427153,45.3433452 C114.677885,46.7533943 113.13408,47.5408479 111.601826,47.8838491 C110.069573,48.2268504 108.481748,48.2117535 106.935446,48.4810819 C104.967992,48.8240832 103.107309,49.6190852 101.266607,50.4083504 C100.696851,50.652618 98.6141971,51.8428564 98.6141971,51.8428564 C98.668519,47.9856021 99.1034068,44.1340847 99.9104312,40.365902 C100.163621,39.1826081 100.473319,37.9654972 101.219153,37.0240554 C101.807329,36.2809867 102.62247,35.7682964 103.431368,35.2888193 C107.665358,32.7785092 112.186568,30.7760583 116.873241,29.3349096 C116.979075,33.855521 116.716207,38.3848887 116.088382,42.8608133 M90.0138459,50.4083504 C88.1731434,49.6190852 86.3127727,48.8240832 84.345319,48.4810819 C82.7990166,48.2117535 81.21088,48.2268504 79.6786263,47.8838491 C78.1466849,47.5408479 76.6025678,46.7533943 75.8536117,45.3433452 C75.45088,44.5854815 75.3119532,43.7146932 75.1920702,42.8608133 C74.564558,38.3848887 74.3016898,33.855521 74.4072117,29.3349096 C79.0938849,30.7760583 83.6150946,32.7785092 87.8493971,35.2888193 C88.6579824,35.7682964 89.4731239,36.2809867 90.0616117,37.0240554 C90.8071337,37.9654972 91.1168312,39.1826081 91.3703337,40.365902 C92.177358,44.1340847 92.6122459,47.9856021 92.6662556,51.8428564 C92.6662556,51.8428564 90.5839141,50.652618 90.0138459,50.4083504 M95.3539434,33.2365487 C75.3734556,26.157619 70.6845971,22.5222889 70.9811824,24.4447263 C71.2777678,26.3674657 72.4622361,56.1101421 72.4622361,56.1101421 C72.4622361,56.1101421 76.6643824,58.3936971 78.0726946,58.3375367 C79.481319,58.2813762 88.2933385,54.9298676 89.2570849,54.9733467 C90.2208312,55.0171276 95.4201288,58.7566262 95.4201288,58.7566262 C95.4201288,58.7566262 100.525143,56.2248785 101.48889,56.1810975 C102.452636,56.1376185 111.2837,58.2813762 112.692324,58.3375367 C114.100948,58.3936971 118.31246,56.1101421 118.31246,56.1101421 C118.31246,56.1101421 119.463524,26.3674657 119.760109,24.4447263 C120.056382,22.5222889 115.334431,26.157619 95.3539434,33.2365487" id="Fill-136" fill="#00CABC"></path>
                        <path d="M96.2325854,54.1140319 C96.0693073,51.6230458 95.9669073,49.1380984 95.7889561,46.6486219 C95.5960195,43.9568472 95.768039,41.2321613 95.8311024,38.5397827 C95.8641951,37.1255065 95.8311024,35.7067011 95.8311024,34.291821 C95.8311024,33.8836012 95.8307902,33.4750795 95.8311024,33.0665578 C95.6721951,33.1233221 95.5148488,33.1794825 95.3540683,33.2362468 C95.0003512,33.1109426 94.6525659,32.9871481 94.3082146,32.8639576 C94.299161,32.8606362 94.2901073,32.8576169 94.2807415,32.8539936 C93.942322,32.7329166 93.6088976,32.6130473 93.2795317,32.4940839 C92.1272195,33.7821501 90.955239,35.0611583 90.0361366,36.5297833 C89.9587122,36.6535778 89.8806634,36.7791839 89.803239,36.9059977 C89.8391415,36.9455516 89.8766049,36.9832938 89.9109463,37.0240554 C90.6995512,37.9654972 91.0273561,39.1826081 91.2952195,40.365902 C92.148761,44.1340847 92.6089366,47.9856021 92.6663805,51.8428564 C92.6663805,51.8428564 90.4635317,50.652618 89.8603707,50.4083504 C89.6408976,50.3192787 89.4208,50.2302071 89.2003902,50.1417394 C88.9112976,50.6936815 88.5188683,51.2039562 88.060878,51.7957542 C86.6029268,53.6801474 84.8377756,55.4265552 82.895922,56.9317147 C85.6900683,55.9984252 88.7149268,54.9488897 89.2572098,54.9733467 C90.2209561,55.0171276 95.4199415,58.7566262 95.4199415,58.7566262 C95.4199415,58.7566262 95.7649171,58.5042063 96.2900293,58.1310113 C96.2937756,56.7922194 96.3203122,55.4504082 96.2325854,54.1140319" id="Fill-138" fill="#00B1B2"></path>
                        <path d="M118.319485,55.9280435 C118.32729,55.7206123 118.342275,55.3404727 118.36288,54.815403 C118.373495,54.5427533 118.385982,54.2314555 118.399719,53.884831 C118.404402,53.7598288 118.343524,53.6305994 118.348831,53.496841 C118.394724,52.333777 118.456226,50.8449221 118.456226,49.1543728 L118.456226,49.1465225 C118.456226,48.959925 118.537709,48.7712139 118.545514,48.5800873 C118.546763,48.5489877 118.581104,48.5175862 118.582353,48.4864866 C118.588909,48.3183073 118.612324,48.1489203 118.619504,47.9774196 C118.621378,47.9300154 118.63168,47.8826112 118.633553,47.834905 C118.640109,47.6679335 118.651036,47.4994522 118.658217,47.3294613 C118.660714,47.2723951 118.664773,47.2153288 118.66727,47.1582626 C118.671953,47.0423185 118.677573,46.9263745 118.682568,46.8092226 C118.687875,46.6778797 118.693807,46.5462349 118.699426,46.4133823 C118.701924,46.3475599 118.704734,46.2808316 118.707543,46.2147073 C118.713787,46.0685694 118.719719,45.9224316 118.725963,45.7750859 C118.728773,45.7026209 118.731895,45.629552 118.734704,45.556785 C118.740948,45.4133646 118.746568,45.2702461 118.752812,45.1256179 C118.757182,45.0111835 118.762178,44.8958433 118.76686,44.7808051 C118.770607,44.6881102 118.774353,44.5963211 118.778412,44.5033243 C118.786217,44.3146132 118.794021,44.1249963 118.801826,43.9347756 C118.803387,43.9030721 118.804636,43.8716706 118.805885,43.8399671 C118.853651,42.6892825 118.902978,41.5120274 118.952929,40.3338664 C118.956363,40.2550607 118.959797,40.1762549 118.963231,40.0974492 C118.970412,39.9262505 118.977592,39.7550518 118.985085,39.5838531 C118.986334,39.5563768 118.987582,39.5289005 118.988831,39.5017261 C118.997573,39.293389 119.006314,39.085354 119.015368,38.8773189 C119.017241,38.8296127 119.019426,38.7822085 119.021612,38.7345023 C119.028792,38.561492 119.036597,38.3890856 119.043778,38.2169811 C119.0469,38.1502529 119.049709,38.0835246 119.052519,38.0170983 C119.060948,37.8241601 119.069065,37.6318258 119.077807,37.4400954 C119.078743,37.4183558 119.07968,37.3966163 119.080617,37.3748768 C119.089046,37.1810328 119.097475,36.9877927 119.105904,36.7954583 C119.108714,36.7263146 119.111836,36.6577747 119.114958,36.5889329 C119.120578,36.4548726 119.126821,36.3211142 119.132441,36.1882616 C119.137436,36.0777524 119.142431,35.9678471 119.147114,35.8579417 C119.152421,35.7422996 119.157417,35.6278652 119.162412,35.5131289 C119.167095,35.410772 119.171465,35.3084151 119.176148,35.206964 C119.182704,35.0590145 119.18926,34.9122728 119.196129,34.765833 C119.198626,34.7021242 119.201436,34.6381134 119.204558,34.5747065 C119.211114,34.426757 119.21767,34.2800152 119.224226,34.1335755 C119.227973,34.0505426 119.232031,33.9675097 119.235778,33.8847788 C119.242021,33.7458874 119.248578,33.6088077 119.254509,33.471426 C119.257943,33.4001687 119.261378,33.3283076 119.264187,33.2576541 C119.271992,33.0943058 119.279173,32.9330711 119.286978,32.7724402 C119.288851,32.7226205 119.291348,32.6721969 119.293534,32.6223772 C119.301026,32.4665773 119.308207,32.3125891 119.315075,32.1592047 C119.317573,32.1054598 119.326626,32.0502052 119.329124,31.9964603 C119.34848,31.5825037 119.392812,31.1794169 119.392812,30.7875017 L119.392812,30.7817649 C119.392812,30.5924499 119.404987,30.4061544 119.414041,30.2225762 C119.415602,30.1881553 119.414041,30.1552441 119.415914,30.1211252 C119.422782,29.9746854 119.428714,29.8294533 119.435582,29.6872407 C119.438704,29.6232299 119.441202,29.5610307 119.444636,29.4979257 C119.449943,29.385001 119.455251,29.2723783 119.46087,29.162171 C119.463992,29.1002738 119.466802,29.0395843 119.469924,28.9785929 C119.475543,28.8695933 119.480851,28.7614996 119.486158,28.6555195 C119.490217,28.5812428 119.493963,28.5084758 119.497709,28.4357089 C119.50208,28.3529779 119.506451,28.2705489 119.510509,28.1899316 C119.514568,28.1147491 119.518314,28.0407743 119.522373,27.9674035 C119.527056,27.8792376 119.531739,27.7919776 119.536109,27.7062273 C119.539856,27.6413107 119.54329,27.5776019 119.546724,27.5144969 C119.551095,27.4338795 119.555465,27.3553757 119.559836,27.2774758 C119.56327,27.2143708 119.566704,27.1515678 119.570139,27.0902744 C119.574821,27.0090532 119.579192,26.9299455 119.583875,26.8517436 C119.586997,26.7955832 119.590119,26.7394228 119.593241,26.6847721 C119.5973,26.6168361 119.601046,26.5513156 119.605104,26.486097 C119.608539,26.4245017 119.612597,26.3629064 119.615719,26.3034247 C119.619778,26.2382062 119.623836,26.1763089 119.62727,26.1141098 C119.630392,26.0651959 119.633514,26.0153761 119.636636,25.9679719 C119.640695,25.9015456 119.644753,25.8387426 119.649124,25.7759395 C119.651934,25.7336683 119.654431,25.6901892 119.657241,25.6497296 C119.660987,25.5920595 119.664734,25.5392204 119.668168,25.4848716 C119.67129,25.4444119 119.6741,25.4018387 119.676909,25.3631907 C119.680968,25.3025012 119.690334,25.2472466 119.694392,25.1913881 C119.696265,25.1660254 119.705007,25.1379451 119.705007,25.1134882 L119.705007,25.1101669 C119.080617,24.8242319 118.381612,24.6029115 117.659817,24.4292973 C117.590509,24.4561698 117.517143,24.4839481 117.44409,24.5129341 C117.409436,24.5268232 117.371348,24.5416182 117.335758,24.5561112 C117.294236,24.5724158 117.253026,24.5887204 117.210256,24.6059309 C117.171856,24.6213297 117.13127,24.6379363 117.091934,24.653939 C117.051036,24.6708475 117.010451,24.6871521 116.967992,24.7043626 C116.926782,24.721573 116.883387,24.7393874 116.841241,24.7565978 C116.797221,24.7747141 116.753514,24.7925284 116.70887,24.8112485 C116.671719,24.8266474 116.633319,24.8426501 116.595231,24.8586528 C116.541534,24.8809961 116.487524,24.9033395 116.431953,24.9265887 C116.401982,24.9389682 116.371387,24.9519515 116.340792,24.9649348 C116.27367,24.993015 116.206236,25.0213972 116.136617,25.0506851 C116.11289,25.060951 116.088226,25.0712169 116.063875,25.0814828 C115.989885,25.1125824 115.91527,25.1442858 115.83847,25.1768951 C115.815368,25.1865571 115.791953,25.1965211 115.768851,25.2061831 C113.326236,26.2427352 109.574275,27.8855783 104.02126,30.0317516 C104.210139,30.9052574 104.497358,31.7697051 104.834529,32.5037157 C105.055563,32.9853063 105.388363,33.636586 105.801085,34.1707138 C109.667621,32.1800384 113.7349,30.5541039 117.930178,29.3348794 C118.041943,33.8554908 117.76409,38.3848585 117.100051,42.8607831 C116.9733,43.714663 116.825943,44.5857533 116.400109,45.343315 C115.607758,46.7533641 113.974353,47.5411196 112.353748,47.8838189 C111.700948,48.0221064 111.03847,48.101516 110.373495,48.1655268 C110.37568,49.0483927 110.655095,49.861209 111.029729,50.7501137 C111.92729,52.8799823 112.200148,54.9630506 112.212324,57.2553617 C112.214197,57.5832661 112.20327,57.9187189 112.188909,58.2565872 C112.401202,58.3033875 112.574782,58.3326755 112.69248,58.3375065 C114.100792,58.3936669 118.312617,56.110112 118.312617,56.110112 C118.312617,56.110112 118.312929,56.0913918 118.314178,56.0642174 C118.315114,56.0340237 118.316987,55.9902427 118.319485,55.9280435" id="Fill-140" fill="#00B1B2"></path>
                        <path d="M79.5057639,29.5039041 C79.1632859,29.931146 78.79552,30.464368 78.4683395,31.0501271 C80.776398,31.9245387 83.0329444,32.9251603 85.2261151,34.0429338 C86.4795785,33.2654441 87.78112,32.5519653 89.0430127,31.7805145 C89.3386615,31.5999557 89.6324371,31.4278512 89.9265249,31.2620874 C89.06112,30.9387121 88.2328663,30.6249988 87.4395785,30.3206456 C87.4214712,30.313701 87.4036761,30.3070584 87.3855688,30.3001138 C86.2007883,29.8453957 85.094681,29.412115 84.0631883,29.0014797 C84.0488273,28.9957429 84.0344663,28.9900061 84.0197932,28.9842693 C83.3357737,28.7116195 82.6842224,28.4489337 82.0642029,28.1968157 C82.0592078,28.1947022 82.0535883,28.1922867 82.048281,28.1901731 C81.7354615,28.0627554 81.430759,27.9380551 81.1338615,27.8160723 C80.5207102,28.3526156 79.9687493,28.9262973 79.5057639,29.5039041" id="Fill-142" fill="#00B1B2"></path>
                        <path d="M78.2679415,58.3156764 C78.3038439,58.3102415 78.3419317,58.3035989 78.3825171,58.2963524 C78.4084293,58.2915214 78.4346537,58.2863884 78.4621268,58.2809535 C78.5002146,58.2731032 78.5411122,58.264347 78.5826341,58.2549869 C78.6154146,58.2477404 78.6466341,58.2410978 78.6812878,58.2332474 C78.7196878,58.2241892 78.7618341,58.2133195 78.8027317,58.2033555 C78.8882732,58.1822199 78.977561,58.1592726 79.0727805,58.1339099 C79.0971317,58.1272672 79.1208585,58.1209265 79.1461463,58.1142839 C79.2110829,58.0964696 79.2782049,58.0777495 79.3472,58.0584254 C79.3684293,58.0523867 79.3899707,58.1025083 79.4118244,58.0961677 C79.4870634,58.075032 79.5638634,58.0855998 79.6437854,58.0855998 L79.6440976,58.0855998 C79.5960195,57.4817244 79.5301463,56.7942122 79.3918439,56.1592372 C79.0749659,54.7075207 78.9778732,53.3454797 79.0590439,51.8687023 C79.0952585,51.2131955 79.1049366,50.5528578 79.1118049,49.8967471 C79.1202341,49.1098974 79.2935024,48.544972 79.4917463,47.8456842 C78.0222439,47.4818493 76.5720976,46.6995286 75.8537366,45.3468477 C75.4510049,44.589286 75.3117659,43.716384 75.1921951,42.8625042 C75.1847024,42.810269 75.1787707,42.756826 75.1719024,42.7042888 C74.3296,34.3970765 74.3452098,41.7731129 73.9534049,41.278237 C73.385522,40.560833 72.6181463,39.3705945 71.7246439,38.524867 C71.7252683,38.5405677 71.7258927,38.5565704 71.7265171,38.5722712 C71.7842732,39.8787557 71.8420293,41.1997332 71.8976,42.5007828 C71.8979122,42.5053119 71.8982244,42.509539 71.8982244,42.51437 C71.9207024,43.0340048 71.9425561,43.5500164 71.9644098,44.060895 C71.9653463,44.0775015 71.9656585,44.0938062 71.9665951,44.1104127 C71.975961,44.3335447 71.9853268,44.5554689 71.9946927,44.7761854 C71.996878,44.8208722 71.998439,44.865559 72.0006244,44.9102458 C72.0209171,45.3951577 72.0412098,45.8734271 72.0611902,46.3435441 C72.0611902,46.3492809 72.0615024,46.3547158 72.0618146,46.3604526 C72.1236293,47.8363241 72.1816976,49.2279551 72.2328976,50.4737501 C72.2338341,50.4939799 72.2344585,50.5139078 72.2353951,50.5344396 C72.2678634,51.3237047 72.2978341,52.0522804 72.3243707,52.7059756 C72.3262439,52.747643 72.3278049,52.7893104 72.329678,52.8303739 C72.3702634,53.8273723 72.4030439,54.6371692 72.4258341,55.2036044 C72.4267707,55.2301749 72.4277073,55.2525183 72.4286439,55.2775791 C72.4305171,55.3192465 72.432078,55.3615178 72.433639,55.4004677 C72.4361366,55.4638747 72.4386341,55.5224506 72.4408195,55.5777052 C72.4411317,55.5861594 72.4414439,55.5946137 72.4417561,55.602766 C72.4461268,55.709652 72.4498732,55.8056682 72.4529951,55.8796429 C72.4548683,55.932482 72.4567415,55.9786785 72.4583024,56.0134013 C72.4608,56.0759024 72.4620488,56.1100214 72.4620488,56.1100214 C72.4620488,56.1100214 76.6641951,58.3935763 78.0728195,58.3374159 C78.1124683,58.3359062 78.1602341,58.3307733 78.2114341,58.3241306 C78.2289171,58.3220171 78.2488976,58.3186958 78.2679415,58.3156764" id="Fill-144" fill="#00B1B2"></path>
                        <path d="M102.83136,63.6750708 C100.262306,63.2692665 97.8515356,62.9166033 95.4161015,63.877671 C94.7604917,63.6992258 94.1988527,63.4588834 93.6447063,63.2632278 C93.09056,63.0675721 92.5442185,62.9166033 91.9198283,62.9166033 C88.1734868,63.5204787 84.7393405,63.218541 80.992999,62.9166033 C83.760921,65.2052911 87.8612917,65.332105 91.4802576,65.3940022 C91.9966283,65.4247998 92.511438,65.4592207 93.023438,65.5011901 C93.842638,65.5685222 94.653721,65.6557822 95.4495063,65.7774631 C97.2867746,65.6104915 99.1374673,65.5485943 100.980355,65.4568052 C101.594443,65.4260076 102.207906,65.3921906 102.819497,65.3499193 C105.344219,65.332105 108.174892,64.6442909 110.027145,62.9166033 C108.153975,62.9166033 105.279594,64.061853 102.83136,63.6750708" id="Fill-146" fill="#161C23"></path>
                        <path d="M90.0857756,45.9110183 C90.0857756,45.9110183 87.4689561,41.0863556 85.7409561,40.1723901 C82.5187902,39.1865635 77.7752976,37.2964334 77.7752976,37.2964334 C77.7752976,37.2964334 76.1543805,39.9848868 77.7556293,42.8070986 C81.4554537,43.7086846 90.0857756,45.9110183 90.0857756,45.9110183" id="Fill-148" fill="#FBF5E7"></path>
                        <path d="M78.8876176,41.1190856 C78.8838712,40.0807218 79.0340371,39.3859631 79.4967102,38.5049089 C79.5357346,38.470488 79.5675785,38.4276128 79.5803785,38.3705466 C79.5835005,38.3566575 79.5866224,38.3427683 79.5897444,38.3288792 C79.5934907,38.3216327 79.5966127,38.315292 79.6006712,38.3080455 C79.6362615,38.2443367 79.64032,38.1836472 79.6322029,38.126279 C79.6393834,38.0870271 79.637198,38.0510965 79.6309541,38.0172795 C78.5260956,37.5954725 77.7752663,37.2962522 77.7752663,37.2962522 C77.7752663,37.2962522 76.1543493,39.9850076 77.7559102,42.8069174 C78.1470907,42.9023298 78.5960273,43.012839 79.0818029,43.1333121 C78.9628566,42.4509329 78.8898029,41.7600994 78.8876176,41.1190856" id="Fill-150" fill="#DAD7D0"></path>
                        <path d="M90.2364098,45.9918168 L87.9923512,45.4024344 C87.9923512,45.4024344 78.4020293,43.1074059 77.4036293,42.9772707 C76.4052293,42.8471355 75.4483512,42.3199523 75.4483512,42.3199523 C75.4483512,42.3199523 76.2141659,41.453693 77.2434732,41.6780327 C77.5684683,42.2432601 78.1891122,42.8507588 78.686439,42.9268471 C79.1837659,43.0029354 86.9973854,44.8245256 88.0563512,45.0087076 C89.1156293,45.1928896 90.2364098,45.9918168 90.2364098,45.9918168" id="Fill-152" fill="#00B1B2"></path>
                        <path d="M85.6654985,42.7107503 C84.8650302,43.9079333 83.2122693,44.2509346 81.9741034,43.4764643 C80.7362498,42.702296 80.3815961,41.1038378 81.1823766,39.9063528 C81.3668839,39.6306837 81.5963473,39.4003052 81.8557815,39.2185387 C82.5647766,39.090819 85.8456351,40.1294848 85.9808156,40.5666906 C86.197479,41.2662803 86.1075668,42.0498086 85.6654985,42.7107503" id="Fill-154" fill="#000000"></path>
                        <path d="M82.6112312,41.451972 C82.6112312,41.451972 83.4897483,41.9392994 83.9976898,41.1542614 C85.0847532,41.4133239 85.50528,41.7119403 85.50528,41.7119403 C85.50528,41.7119403 85.068519,43.269637 83.6945483,43.4154729 C82.3208898,43.5616108 81.6356215,42.9550179 81.4639141,42.7065232 C81.2918946,42.4577265 82.6112312,41.451972 82.6112312,41.451972" id="Fill-156" fill="#012942"></path>
                        <path d="M85.3408156,40.9122281 C85.13664,41.0284741 84.7738693,40.995261 84.5412839,41.0139811 C84.2668644,41.0363245 83.9915083,41.0517233 83.71584,41.063197 C83.4301815,41.0755764 83.4573424,41.504328 83.743001,41.4922504 C84.1104546,41.4768516 84.4769717,41.4536024 84.8431766,41.4191815 C85.0963668,41.3953284 85.3645424,41.3968381 85.5880741,41.2694204 C85.8347083,41.1287174 85.5871376,40.7718271 85.3408156,40.9122281" id="Fill-158" fill="#627B8A"></path>
                        <path d="M90.0874615,45.933875 C89.5629737,45.2131497 86.8980761,41.0418802 85.7432663,40.3890908 C83.5513444,39.1502404 80.774681,39.3295914 78.4750517,38.289416 C76.2968663,37.3041932 75.8157737,36.6423457 75.5179395,34.3343338 C76.77952,35.4466724 77.2702907,36.2480151 78.5696468,37.0131252 C79.4528468,37.533062 81.9597737,38.643287 82.8710712,38.92892 C83.6949541,39.1873787 84.4916761,39.5243412 85.3090029,39.7861212 C86.6501932,40.2154766 87.8196761,41.1086084 88.5926712,42.2490271 C88.9504468,42.7765123 89.1502517,43.3586482 89.4237346,43.9193466 C89.7396761,44.5673049 90.0265834,45.3025232 90.2341932,45.9891296" id="Fill-160" fill="#00CABC"></path>
                        <path d="M128.147231,175.354705 C128.147231,175.354705 78.6880312,166.802924 88.4488117,137.642081 C90.2795239,133.137472 106.198353,121.009238 106.198353,121.009238 C106.198353,121.009238 96.1353678,117.159532 99.8720312,95.1078134 C100.961904,88.6759362 102.933729,83.4789843 105.180909,79.3442492 C105.501846,78.7533571 105.828402,78.1842045 106.158704,77.6364895 C106.543329,76.8940247 106.959173,76.174809 107.401241,75.4734077 C107.749963,74.9552826 108.106802,74.4407808 108.466763,73.9274866 C108.826724,73.4144945 109.189807,72.903012 109.547895,72.3942469 C112.524675,68.9551764 115.022236,65.0299861 114.397846,60.5009204 C114.085651,56.2737924 114.085651,52.3486021 114.648226,48.0124746 C114.752187,47.225323 114.879875,46.4436062 115.027856,45.6649089 C115.469924,43.3303265 116.089631,41.0217107 116.730256,38.7544604 C116.982509,37.9241317 117.245065,37.1037669 117.541963,36.2870254 C117.838548,35.46968 118.1701,34.6562598 118.539739,33.8488784 C112.833436,30.6148235 110.761397,25.2614679 112.316441,15.4116558 C114.775602,6.65425431 115.556402,4.05517447 115.556402,4.05517447 C115.556402,4.05517447 143.597456,10.485542 141.111758,59.7968016 C146.307309,63.4420957 144.605221,71.5678434 140.26009,84.6568433 C146.985085,89.4431599 148.479563,99.4985916 142.031485,112.025987 C142.927485,113.530241 144.785046,117.501326 144.785046,117.501326 C144.785046,117.501326 150.475739,126.972508 148.311602,133.137472 C146.147465,139.302437 121.05728,146.336981 128.147231,175.354705" id="Fill-162" fill="#012942"></path>
                        <g id="Group-166" transform="translate(45.892683, 0.147949)">
                            <mask id="mask-4" fill="white">
                                <use xlink:href="#path-3"></use>
                            </mask>
                            <g id="Clip-165"></g>
                            <path d="M69.6636878,3.90725518 C69.6636878,3.90725518 60.9934049,-2.39992172 43.9925073,1.33595361 C26.9922341,5.071527 17.1065756,22.0165734 15.8481171,31.1595494 C12.9393951,41.0685413 12.423961,46.8210586 17.2636098,66.6073389 C12.5038829,76.3925363 10.543922,74.9239113 9.27890732,83.7483429 C1.13498537,93.9432698 -10.2279805,107.835122 18.4349659,130.574957 C28.5497756,111.464413 39.0148683,96.8207362 37.5213268,90.7638657 C36.0277854,84.7069952 36.5691317,75.1083952 32.0157659,64.3153297 C27.484878,55.6155984 23.8028488,44.1338129 33.2142829,33.6689537 C39.5018927,26.677284 51.0424976,28.9472517 64.9670244,22.7116341 C76.704,17.3187246 69.6636878,3.90725518 69.6636878,3.90725518" id="Fill-164" fill="#012942" mask="url(#mask-4)"></path>
                        </g>
                        <path d="M112.970084,118.700864 C118.821869,115.120789 124.766377,110.561227 126.725713,103.838886 C126.732894,103.813825 126.734142,103.790576 126.738869,103.766002 C126.765362,103.729584 114.688406,112.269591 108.180386,115.199292 C106.296601,116.047737 104.392523,116.868706 102.500933,117.713226 C104.329147,120.292378 106.198572,121.00948 106.198572,121.00948 C106.198572,121.00948 103.545225,123.030953 100.280601,125.729672 C104.515216,123.396599 108.84942,121.222044 112.970084,118.700864" id="Fill-167" fill="#1D3650"></path>
                        <path d="M140.260027,84.6569339 C142.093861,79.1326815 143.453471,74.4961259 144.026037,70.7034863 C141.7851,79.8392157 134.287735,86.2632425 128.104086,93.1909014 C127.173432,94.1157367 126.310525,95.1066962 125.553452,96.1988049 C125.068613,96.8980927 128.486213,95.0514416 129.389393,94.0417619 C132.792944,90.6905552 137.196769,88.2019846 140.679618,84.9733646 C140.541003,84.8667806 140.403325,84.7589888 140.260027,84.6569339" id="Fill-169" fill="#1D3650"></path>
                        <path d="M142.962451,113.756181 C142.617787,113.078935 142.285924,112.453018 142.031485,112.026078 C143.446041,109.277539 144.477846,106.648567 145.156558,104.167847 C143.151017,107.375029 140.21326,110.113604 137.305787,112.488043 C132.516402,116.399344 127.304617,119.979117 123.927602,125.203848 C123.460558,125.926384 134.928421,117.890614 140.734939,114.928605 C141.46766,114.555108 142.215992,114.165911 142.962451,113.756181" id="Fill-171" fill="#1D3650"></path>
                        <path d="M70.0821229,74.0037561 C70.093362,73.9922825 70.1055376,73.9814127 70.1167766,73.9699391 C70.1155278,73.9687313 70.114279,73.9678255 70.1130302,73.9669197 C70.1539278,73.9161942 70.1979473,73.868488 70.2385327,73.8174605 C70.7820644,73.1362891 60.4224937,78.9226234 55.6349815,81.2472419 C55.4692059,82.0180889 55.315918,82.8894811 55.1713717,83.8961414 C53.850162,85.5504582 52.4440351,87.3019988 51.1378107,89.1728049 C52.3700449,87.9883033 53.682201,86.8759647 55.0695961,85.8442436 C60.207079,82.0238257 66.0123473,78.9987117 70.0821229,74.0037561" id="Fill-173" fill="#1D3650"></path>
                        <path d="M67.9929444,69.2470596 C62.9072859,65.0939063 62.6334907,58.2287485 60.5979785,52.3953119 C60.8680273,55.6435578 61.4824273,59.462466 62.5354615,64.1198552 C62.8304859,64.8487329 63.1486127,66.0172318 62.9513054,65.9064207 C63.0181151,66.1866189 63.0861737,66.4689307 63.1561054,66.7551676 C63.0268566,67.0211747 62.8997932,67.2778218 62.7742907,67.5278262 C64.2750127,68.4224677 68.6669737,69.797492 67.9929444,69.2470596" id="Fill-175" fill="#1D3650"></path>
                        <path d="M130.977998,26.7625814 C132.838057,35.7950481 136.363676,31.1784205 134.262603,37.3297975 C132.16153,43.4805707 129.118252,53.5483818 132.33074,61.0243596 C136.388652,58.8522197 140.149042,71.1154199 134.041569,77.2483788 C127.93472,83.3816396 116.02791,88.3415704 113.94994,112.026169 C113.087344,82.8650241 127.121764,75.8591634 129.303696,73.0792228 C131.485315,70.2992823 130.948964,61.4241251 128.596574,62.1822907 L126.750876,63.1041066 C126.750876,63.1041066 123.3595,48.10837 129.303696,36.3548406 C129.794466,33.832453 127.277549,33.8013534 126.591657,29.2381687 C125.905452,24.674984 113.0171,12.9863713 113.0171,12.9863713 C113.0171,12.9863713 129.118252,17.7304166 130.977998,26.7625814" id="Fill-177" fill="#00B1B2"></path>
                        <path d="M113.22496,39.6223502 C111.255321,52.8626209 119.131067,65.5213595 119.131067,65.5213595 C119.131067,65.5213595 117.836394,66.4464967 116.034716,68.59267 C117.659067,67.3740493 121.713858,65.2949062 121.856531,64.9096337 C122.013565,64.8278086 118.037448,52.6684749 117.943789,46.826584 C117.867614,42.0852561 119.022423,34.4386835 123.308862,33.2158358 C123.977897,33.0250111 114.823399,29.2215018 113.444745,23.9418189 C112.082638,18.7255429 117.525448,6.52393799 116.99378,7.20963854 C116.955692,7.25885439 116.917604,7.30897605 116.879516,7.35849383 C114.775945,8.61727216 112.785701,13.13577 111.302462,15.4513304 C111.046462,16.2393878 110.815126,17.0890405 110.621253,18.0123661 C109.748043,25.3998761 109.882599,29.4165535 111.806033,32.327535 C113.128492,34.3290801 113.609272,37.0377634 113.22496,39.6223502" id="Fill-189" fill="#1D3650"></path>
                        <path d="M131.625865,58.9956099 C130.287485,59.5324552 128.895719,60.056619 127.580753,60.6937076 C127.184265,60.8437707 126.790275,60.9917201 126.396909,61.1396696 C126.588285,62.3854646 126.750939,63.1040764 126.750939,63.1040764 L128.596636,62.1822605 C128.792382,62.1191556 131.476012,61.3833334 132.329865,61.0222158 C132.047953,60.3655013 131.816304,59.6879531 131.625865,58.9956099" id="Fill-191" fill="#009BA6"></path>
                    </g>
                </g>
            </g>
        </g>
    </g>
</svg>